<svg xmlns="http://www.w3.org/2000/svg" viewBox="0 0 67.08 54.44"><defs><style>.cls-1{fill:#fff}.cls-2{fill:#803ea0}</style></defs><title>quotes</title><g id="Layer_2" data-name="Layer 2"><g id="Template"><path class="cls-1" d="M0 0h67.08v54.44H0z"/><path class="cls-2" d="M32.33 7.35l-.59 6.3Q16.43 17 16.43 26.24q0 2.64 4.91 5.71t4.83 7.62A8.44 8.44 0 0 1 23.61 46a9.42 9.42 0 0 1-6.74 2.42A11.31 11.31 0 0 1 8.56 45a12 12 0 0 1-3.41-8.9 26.39 26.39 0 0 1 7-18.46q6.92-7.58 20.18-10.29zm30 0l-.59 6.3q-15.31 3.44-15.31 12.6 0 2.64 4.91 5.71t4.83 7.62A8.51 8.51 0 0 1 53.6 46a9.4 9.4 0 0 1-6.78 2.42A11.15 11.15 0 0 1 38.51 45a12.18 12.18 0 0 1-3.33-8.9 26.44 26.44 0 0 1 7-18.57Q49.1 10 62.28 7.35z"/></g></g></svg>