<svg xmlns="http://www.w3.org/2000/svg" viewBox="0 0 472.65 204.45"><defs><style>.cls-1{fill:#fff;}.cls-2{fill:#442062;}</style></defs><title>logo_hard</title><g id="Layer_2" data-name="Layer 2"><g id="Layer_1-2" data-name="Layer 1"><path class="cls-1" d="M141.22,204.45a15.57,15.57,0,0,1-11-4.21,15.74,15.74,0,0,1-4.79-10.66l0-.38v-.38c0-2.55.1-8.54,16.22-28.84,6.16-7.76,13.81-16.5,22.67-25.94a.92.92,0,0,0-.66-1.55h-2.15a.43.43,0,0,1-.43-.43v-.61a.68.68,0,0,0-.91-.64,57.09,57.09,0,0,1-18.06,2.59c-12.28,0-20.35-4.94-22-6a.59.59,0,0,0-.62,0l-1.94,1c-6.16,3.32-14.29,5-24.17,5-6.73,0-14.31-1.19-20.49-5.27a4.49,4.49,0,0,0-4.93,0h0c-5.62,3.69-12.18,5.26-21.94,5.26-22.36,0-38.61-14.6-44.57-40.06C-2.4,77,2.16,66.76,6.67,61.07c4.26-5.38,12.52-11.8,27.67-11.8,8.81,0,16.18,1.53,22.52,4.66L63,57a2.08,2.08,0,0,1,1.05,2.52L63.3,61.9a1.35,1.35,0,0,0,1.28,1.78h50.77A2.57,2.57,0,0,1,117.92,66h0a.55.55,0,0,0,.75.47,58.7,58.7,0,0,1,20.77-3.71c8.39,0,15.3,2.08,20.4,5.93a2.64,2.64,0,0,0,2.63.3l4.16-1.79c6.74-2.9,15.48-4.44,25.26-4.44,11.3,0,19.74,2.87,25.1,8.52a21.46,21.46,0,0,1,4,6,1.41,1.41,0,0,0,2.22.51l0,0a1.42,1.42,0,0,0,.46-1.37c-1.72-8-3.31-15.84-4.72-23.47-.83-4.45-1.46-7.7-1.93-10a5.58,5.58,0,0,0-2.26-3.48c-6.3-4.38-6.75-10.15-6.62-12.57.39-7.45,6.12-12.93,17-16.28,2.84-.88,4.21-1.36,4.86-1.61a57.46,57.46,0,0,0,6.71-3.81c5.65-3.48,10.53-5.17,15-5.17,6.74,0,10.44,3,12.36,5.57,2.41,3.19,3.31,7.28,2.78,12.5a189.82,189.82,0,0,0-.9,22.72q0,.95,0,1.9a1.42,1.42,0,0,0,2.27,1.09C285.31,31,301,20.55,313.43,13.67,329,5.11,341.84.78,351.62.78c6.93,0,11,2.9,13.19,5.34a15.06,15.06,0,0,1,3.78,9.22,2,2,0,0,0,2,1.88q1.27-.07,2.55-.07A49,49,0,0,1,419.4,50,3,3,0,0,0,423,51.88a39.43,39.43,0,1,1-23.45,58.48,2.65,2.65,0,0,0-3.5-1,49,49,0,0,1-47.11-.83,1.66,1.66,0,0,0-2.49,1.47,25.63,25.63,0,0,1-.69,5.76,43.66,43.66,0,0,1-7.87,17.06,41.85,41.85,0,0,1-14.27,11.75l-.1,0a88.92,88.92,0,0,0-9.53,5.81c-11.6,8-21.89,11.86-31.4,11.86-14.38,0-26.55-6.09-36.2-18.09-5.61-7-10.21-15.87-13.75-26.49a1.41,1.41,0,0,0-2.31-.59q-6.43,6-12,11.51l-.14.14c-.82.82-5,5-6.33,6.44s-2.43,2.58-3.36,3.6a4.92,4.92,0,0,0-1,4.88,13.62,13.62,0,0,1,.74,4.75c-.15,6.13-4.58,11.91-20.58,26.84l-.17.16-.83.73c-3.19,3-6.75,6.46-10.58,10.33-6,6.1-7.58,7.53-8.94,8.46l-.21.14-.22.13a18.87,18.87,0,0,1-6.94,2.46c-.48.08-.78.14-1,.18-.63.3-1.78.89-3.7,2l-.17.1C149.21,203.07,145,204.45,141.22,204.45ZM271.31,81.19a2.22,2.22,0,0,0-.78,2c2.11,13.43,9.48,25,12.32,29.09a.79.79,0,0,0,1.43-.33l7.66-45.38a.94.94,0,0,0-1.5-.9C284.81,70.05,278.42,75.21,271.31,81.19Zm50.27,14.7a.36.36,0,0,0,.51.38A20.56,20.56,0,0,1,331,94.16h.51a.86.86,0,0,0,.75-1.32,48.68,48.68,0,0,1-6.57-15,.37.37,0,0,0-.71,0Zm.4-50.77a.46.46,0,0,0-.07.81A15.82,15.82,0,0,1,325.35,49q.44.54.83,1.11A.45.45,0,0,0,327,50a48.62,48.62,0,0,1,2.65-6.2.45.45,0,0,0-.43-.66A26.06,26.06,0,0,0,322,45.12Z"/><path class="cls-2" d="M160.51,119.79q-.34-14.58-.67-29.17c-.26-13.23-8.87-17.85-20.41-17.85a48.1,48.1,0,0,0-18.87,3.71q1.9,4,3.77,8.06a32.39,32.39,0,0,1,12.84-3c5.32,0,8.93,1.45,9.13,6.52,0,.76.07,1.51.09,2.27C131.5,91.7,119,95.42,120.08,108c.85,10.15,8.31,15.4,22,15.4C150.22,123.41,156.58,122,160.51,119.79Zm-27.35-12.32c-.49-7.79,4.94-9.78,13.49-10.6q.37,8.88.74,17.76a11.23,11.23,0,0,1-5,1C136.87,115.62,133.53,113.17,133.16,107.47ZM93.87,73.68q2.18,19.53,4.37,39a11,11,0,0,1-5.66,1.18c-4.72,0-7-2.9-7.43-6.43Q83,90.57,80.77,73.68H66.07l4.9,32.8c1.8,11.77,9.07,16.94,22.4,16.94,8.87,0,15.21-1.54,19.42-3.81q-2.11-23-4.22-45.93Zm224.83-14c.69-3.63-2.33-6.62-6.79-6.62s-8.54,3-9.15,6.62,2.41,6.61,6.79,6.61S318,63.35,318.7,59.64ZM292.64,122.5h13.73q4.61-24.41,9.2-48.83h-14.7Zm38.74-18.34c-3.53,0-7.32,1.82-11.29,5.46A22.62,22.62,0,0,0,312.8,122l-.5,2.52a13.67,13.67,0,0,1-3.92,7.63A10.38,10.38,0,0,1,301,134.9c-9.41,0-17.8-5.35-25.84-16s-13.34-24.3-15.67-40.79c23.29-19.92,40.42-32.38,49-37.41s16-7.54,21.61-7.54a35.72,35.72,0,0,1,5.26.48,35.14,35.14,0,0,0,4.09.48c3.39,0,7.14-1.69,11.3-5.07s6.69-6.88,7.53-10.49q.84-3.67-1-5.71c-1.22-1.35-3.14-2-5.76-2-7.93,0-19.23,3.88-33.36,11.65s-35,21.83-60.57,42.19A218.78,218.78,0,0,1,255.95,41a199,199,0,0,1,1-23.92q.39-3.87-.81-5.46T251.72,10c-2.47,0-5.73,1.23-9.69,3.67a64.45,64.45,0,0,1-8.38,4.64c-1.18.45-3,1.07-5.52,1.84-6.53,2-9.84,4.42-10,7.25-.09,1.68,1,3.14,3.27,4.4s3.64,2.43,4.13,3.53c.25.45,1.39,5.7,3.26,15.76s3.91,20,6.11,29.77q-6.42,5.51-12.65,11c-3.44,3-6.71,6-9.9,8.9q.32-6.26.63-12.52c.48-8.88-4.93-15.49-21.1-15.49-9.07,0-16.25,1.45-21.3,3.62q.18,23.06.37,46.11h13.73q.24-20,.48-39.95a17.64,17.64,0,0,1,6.16-1c5.88,0,7.36,3.35,7.25,6.79q-.4,13-.8,26c-45.8,44.24-62.34,69.09-62.4,74.55a5.91,5.91,0,0,0,1.7,4.06,5.74,5.74,0,0,0,4.13,1.45c2,0,4.92-1.1,8.94-3.29q3.23-1.84,5-2.61a14.72,14.72,0,0,1,3-.72,9.25,9.25,0,0,0,3.33-1.11,102.57,102.57,0,0,0,7.5-7.25c4.2-4.25,7.89-7.83,11-10.73l.88-.77c11.26-10.5,17.34-17.11,17.41-19.82,0-1-.54-2.32-1.73-4.06s-1.79-2.9-1.77-3.48c0-1.22,3.24-5.31,9.88-12.28,1.63-1.73,6.68-6.8,6.69-6.8,6.46-6.41,15.08-14.6,26.31-24.62q5,26.68,16.55,41c7.68,9.57,17,14.36,28.4,14.36,7.49,0,16-3.39,25.81-10.15A100.81,100.81,0,0,1,319,135.67a31.79,31.79,0,0,0,10.89-8.94,33.63,33.63,0,0,0,6-13.2q1-4.35-.25-6.87A4.47,4.47,0,0,0,331.38,104.16ZM35.19,85.91q.86,4.39,1.71,8.79h7.51q1.63,8.83,3.25,17.67a8.34,8.34,0,0,1-4.38.9c-7.46,0-13.87-7.25-16.95-21.83C23.15,76.3,27.65,69.69,38.1,69.69c5.59,0,9.1,1.09,11.38,2.26q1.45-4.53,2.94-9.06c-4.58-2.27-10.3-3.63-18.09-3.63-19.14,0-27.62,12.86-23.16,31.8C15.84,111,27.75,123.41,46,123.41c8.25,0,12.87-1.27,16.45-3.62q-2.79-16.94-5.58-33.88Zm398-25.35a29.31,29.31,0,0,0-21.28,9.12c.11-1.19.17-2.38.17-3.6a39,39,0,1,0-8.3,24,29.41,29.41,0,1,0,29.41-29.54ZM373.18,32a34,34,0,0,1,20,6.51h-17.1a1.75,1.75,0,0,0-2,2V55.62a1.77,1.77,0,0,0,2,2h2q-.9,1.44-1.74,2.76a14.8,14.8,0,0,0-2-1.26l-2.93,5.22a36.09,36.09,0,0,1,6.65,4.8c-.4.36-.8.7-1.2,1l-3.3.42a39.31,39.31,0,0,0-2.1-5.4L368,66.54a32.26,32.26,0,0,0,3.42-4.86l-5-2.76a31.91,31.91,0,0,1-3.54,5.34,8.86,8.86,0,0,0-.9-.78c1.56-2,2.77-3.76,3.66-5.16l-1-.66h6a1.73,1.73,0,0,0,1.91-1.92V40.33a1.62,1.62,0,0,0-1.86-1.8H353.2A34,34,0,0,1,373.18,32Zm-5.52,37.21-2.46.3a18.7,18.7,0,0,1,1.8-1.8C367.16,68.14,367.38,68.64,367.66,69.24Zm-15-23.75c0-1,.45-1.5,1.5-1.5h10.31q1.44,0,1.44,1.38v.36H352.68Zm0,4.74h13.25v.36a1.43,1.43,0,0,1-1.62,1.62H352.68Zm0,7.44H359c-.53.76-1,1.54-1.51,2.34a10.51,10.51,0,0,0-2.22-1.32l-2.64,4.79ZM346,86.57a34,34,0,0,1,0-41Zm47.5-1.5a3.9,3.9,0,0,1-.48,1.86,2.08,2.08,0,0,1-1,1,12.63,12.63,0,0,1-5-1.08l-.48,7.32a25.55,25.55,0,0,0,4.79.67,33.93,33.93,0,0,1-38.66-1.62V64a33,33,0,0,1,6.17,4.5c-.83.72-1.62,1.38-2.34,2l-3.35.36a28.34,28.34,0,0,1,1.14,5.33l15.17-1.56a4.82,4.82,0,0,0,.36,1.32h-4.38V80.4h-2.57q-1.44,0-1.44-1.5V76.43h-5.93v6.84a2.5,2.5,0,0,0,2.76,2.82h5.46a.75.75,0,0,0-.42.3,20,20,0,0,1-6.41,2.16l3,6.24Q368.32,92,371,86.33a10.79,10.79,0,0,0,.67-3.12V76l2.69-.84c0,.28.08.56.12.84l14.93-1.74c.16.52.36,1.1.6,1.74h-5v3.18a.85.85,0,0,1-1,1h-2.58v-4H374.8V93.29h6.66V85.85h7.85a1.43,1.43,0,0,0,1.62-1.62v-8l2.58-1Zm-8.46-15.89a21,21,0,0,1,1.44-1.68,12.85,12.85,0,0,1,.72,1.44Zm8.46.84a50,50,0,0,0-2.46-5.22l-3.6,1.62a26.66,26.66,0,0,0,3.6-5.7l-5.16-2.4a31.25,31.25,0,0,1-4,6.53l-1.14-1A58.91,58.91,0,0,0,384.82,58l-.54-.36h9.23Zm0-17.81h-11c-1.2,0-1.8-.62-1.8-1.86v-.12h12.77Zm-12.77-6.48v-.24c0-1,.46-1.5,1.5-1.5h9.42a1.63,1.63,0,0,1,1.86,1.74Zm19.43,41.07V45.35a34,34,0,0,1,0,41.46Zm12.4,3.71q1.14-1.24,2.34-2.7v18.46A24.49,24.49,0,0,1,417.62,71a46.87,46.87,0,0,1-8.17,14.58Zm39.72,14.87a62.37,62.37,0,0,0-6-10.52l-4.77,2.8a68.1,68.1,0,0,1,6.53,11.83,24.47,24.47,0,0,1-28.73.68h1v-3.71l4.17,2.89q4.54-4,8.06-12.37l-5.09-2a29.32,29.32,0,0,1-7.15,10.77V79.15a76.8,76.8,0,0,0,3.71-9.72l-2.64-1A24.46,24.46,0,0,1,444.09,68a153.18,153.18,0,0,1-19.16,1.28l0,5.4c2,0,4.25-.1,6.6-.23q-1.28,2.11-2.62,4a1.66,1.66,0,0,0-.46-.32,16.74,16.74,0,0,0-3.57-1.88l-2.3,4.95a48.76,48.76,0,0,1,9.35,6c-.39.4-.76.79-1.1,1.19l-9.63.5q.83,2.94,1.38,5.36l11.6-.78v16.68h5.46V93.08l8.15-.59c.55,1.22,1,2.38,1.46,3.48l5-1.83a87.88,87.88,0,0,0-5.92-12.56l-4.95,2.2c.37.58,1,1.83,2,3.75L438.6,88a98.74,98.74,0,0,0,7.84-10.68l-4.35-3.35q-3.21,4.86-6.7,9.26c-.82-.64-1.62-1.22-2.38-1.74q3.21-4.45,5-7.52a2.09,2.09,0,0,1,.83-.14Q447,73,450.1,72.55l0-.4a24.46,24.46,0,0,1,2.22,33.24Z"/></g></g></svg>