<?xml version="1.0" standalone="no"?>
<!DOCTYPE svg PUBLIC "-//W3C//DTD SVG 20010904//EN"
 "http://www.w3.org/TR/2001/REC-SVG-20010904/DTD/svg10.dtd">
<svg version="1.0" xmlns="http://www.w3.org/2000/svg"
 width="300.000000pt" height="300.000000pt" viewBox="0 0 300.000000 300.000000"
 preserveAspectRatio="xMidYMid meet">
<metadata>
Created by potrace 1.11, written by Peter Selinger 2001-2013
</metadata>
<g transform="translate(0.000000,300.000000) scale(0.100000,-0.100000)"
fill="#000000" stroke="none">
<path d="M1510 2726 c-19 -8 -66 -32 -105 -55 -38 -22 -99 -50 -135 -62 -114
-38 -146 -61 -156 -116 -1 -7 11 -23 28 -35 74 -57 73 -54 107 -233 18 -94 35
-179 37 -190 2 -11 14 -72 28 -135 l24 -115 -21 -18 c-12 -10 -53 -46 -92 -80
-38 -34 -87 -78 -110 -97 -91 -79 -172 -157 -416 -400 -294 -294 -430 -444
-570 -632 -88 -119 -133 -205 -124 -241 18 -69 80 -76 188 -21 40 20 93 43
118 50 40 12 79 46 287 251 156 155 243 248 247 265 5 20 0 40 -20 73 -24 42
-25 48 -12 68 40 61 203 229 394 407 135 126 164 152 167 149 2 -2 8 -24 14
-49 63 -277 157 -463 293 -577 165 -139 368 -144 579 -16 41 26 111 68 155 94
159 94 226 161 264 264 35 93 34 163 -3 187 -18 12 -74 9 -109 -6 -46 -20
-113 -81 -141 -129 -14 -23 -32 -71 -41 -107 -32 -125 -81 -167 -185 -157
-155 14 -313 161 -421 391 -38 82 -82 218 -93 291 -4 22 -9 47 -12 56 -3 11
12 30 43 57 421 357 685 531 848 559 58 10 60 10 142 -1 55 -7 68 -5 117 17
60 28 150 110 166 152 6 15 10 43 10 64 0 53 -27 75 -93 77 -205 5 -587 -203
-1110 -605 -76 -58 -141 -105 -145 -104 -3 2 -7 13 -8 25 -1 13 -5 50 -9 83
-7 51 -8 301 -2 522 1 34 -3 67 -9 73 -17 17 -76 21 -114 6z"/>
</g>
</svg>
